<svg width="100" height="100" viewBox="0 0 100 100" fill="none" xmlns="http://www.w3.org/2000/svg">
<rect width="100" height="100" fill="#F5F5F5"/>
<rect x="49.7203" y="85" width="50.2796" height="15" rx="1.5" fill="#00CC66"/>
<rect x="0.23877" width="79.809" height="13" rx="1.5" fill="#0066CC"/>
<path d="M14.0464 99.7C11.3329 99.7 8.912 99.2 6.78376 98.2C4.65552 97.2667 2.97953 95.8 1.7558 93.8C0.585266 91.8667 0 89.5 0 86.7V84.8C0 81.8667 0.665075 79.3667 1.99522 77.3C3.32537 75.3 5.02796 73.7667 7.103 72.7C9.17803 71.6333 11.3329 71.1 13.5675 71.1L16.4406 75.2C15.1105 75.2 13.9134 75.4667 12.8492 76C11.7851 76.5333 10.9338 77.3333 10.2954 78.4C9.65688 79.4667 9.33765 80.8 9.33765 82.4V84C9.33765 86.4 9.97612 88.1333 11.2531 89.2C12.53 90.3333 14.339 90.9 16.6801 90.9H25.3792C27.8267 90.9 29.7421 90.3 31.1255 89.1C32.5621 87.9667 33.2803 86.2 33.2803 83.8V82.1C33.2803 80.6333 33.0409 79.4 32.5621 78.4C32.0832 77.4 31.3117 76.6 30.2476 76C29.1835 75.4667 27.7469 75.2 25.9379 75.2H15.2435C10.987 75.2 7.76807 74.1667 5.58663 72.1C3.45839 70.0333 2.39427 67.4333 2.39427 64.3C2.39427 61.6333 3.00614 59.4333 4.22987 57.7C5.50682 55.9667 7.26261 54.8 9.49727 54.2C7.68826 53.1333 6.2517 51.7667 5.18758 50.1C4.17667 48.4333 3.45839 46.6333 3.03274 44.7C2.60709 42.7667 2.39427 40.8 2.39427 38.8C2.39427 34.7333 3.05934 31.4333 4.38949 28.9C5.71964 26.3 7.66166 24.4 10.2155 23.2C12.7694 21.9333 15.9352 21.3 19.7128 21.3H42.7776V28.2L35.1957 29.5C35.7278 30.1667 36.2865 30.9667 36.8717 31.9C37.5102 32.8333 38.0423 34.0667 38.4679 35.6C38.8936 37.1333 39.1064 39.1333 39.1064 41.6C39.1064 44.6 38.6009 47.3333 37.59 49.8C36.6323 52.2667 35.0361 54.2333 32.8015 55.7C30.5668 57.1667 27.5607 57.9 23.7831 57.9H16.5205C14.8179 57.9 13.4345 58.2333 12.3704 58.9C11.3063 59.5667 10.7742 60.7 10.7742 62.3C10.7742 63.6333 11.1999 64.5667 12.0512 65.1C12.9024 65.6333 13.8069 65.9 14.7647 65.9H27.4543C30.6998 65.9 33.44 66.4333 35.6746 67.5C37.9625 68.5667 39.6917 70.2333 40.8622 72.5C42.0327 74.7667 42.618 77.7667 42.618 81.5V83.2C42.618 88.3333 41.2878 92.3667 38.6275 95.3C36.0204 98.2333 32.0034 99.7 26.5764 99.7H14.0464ZM18.1166 48.6H22.7456C24.7142 48.6 26.2305 48.2333 27.2947 47.5C28.412 46.7 29.1569 45.6667 29.5293 44.4C29.955 43.0667 30.1678 41.6 30.1678 40C30.1678 37.7333 29.8752 35.9333 29.2899 34.6C28.7578 33.2 27.9597 32.2 26.8956 31.6C25.8847 31 24.6344 30.7 23.1446 30.7H18.6753C16.281 30.7 14.4454 31.3667 13.1685 32.7C11.9447 34.0333 11.3329 36.3 11.3329 39.5C11.3329 42.7 11.9181 45.0333 13.0887 46.5C14.2592 47.9 15.9352 48.6 18.1166 48.6Z" fill="black"/>
<path d="M64.7313 75.6C63.5076 75.6 62.0976 75.5333 60.5014 75.4C58.9584 75.3333 57.3889 75.2 55.7927 75C54.2497 74.8667 52.8132 74.6667 51.483 74.4C50.1529 74.1333 49.0621 73.8333 48.2108 73.5V66.2H66.6467C67.9769 66.2 69.0942 66.0667 69.9987 65.8C70.9564 65.5333 71.6747 65 72.1535 64.2C72.6324 63.4 72.8718 62.2 72.8718 60.6V58.7C72.8718 57.0333 72.4196 55.7333 71.5151 54.8C70.6638 53.8 69.1474 53.3 66.9659 53.3H60.5014C58.0007 53.3 55.7661 52.8667 53.7975 52C51.8821 51.1333 50.3657 49.6667 49.2484 47.6C48.131 45.5333 47.5724 42.7333 47.5724 39.2V36.2C47.5724 32.8 48.0778 30 49.0887 27.8C50.1529 25.5333 51.8821 23.8333 54.2763 22.7C56.7238 21.5 59.9694 20.9 64.013 20.9C65.7156 20.9 67.5512 21 69.5198 21.2C71.4885 21.4 73.3773 21.6667 75.1863 22C76.9953 22.2667 78.4318 22.6 79.496 23V30.3H62.0976C60.129 30.3 58.6126 30.7333 57.5485 31.6C56.5376 32.4 56.0321 33.9333 56.0321 36.2V38.1C56.0321 39.5667 56.2715 40.6667 56.7504 41.4C57.2293 42.1333 57.9475 42.6333 58.9052 42.9C59.8629 43.1667 61.0069 43.3 62.337 43.3H68.9612C73.1644 43.3 76.277 44.5 78.2988 46.9C80.3206 49.3 81.3316 52.7 81.3316 57.1V61.5C81.3316 65.1 80.6665 67.9333 79.3363 70C78.0062 72.0667 76.0908 73.5333 73.5901 74.4C71.1426 75.2 68.1897 75.6 64.7313 75.6Z" fill="black"/>
<path d="M90.8232 12.9C89.8123 12.9 89.3068 12.3 89.3068 11.1V2C89.3068 0.666668 89.8123 0 90.8232 0H98.3253C98.8041 0 99.1499 0.200001 99.3628 0.600004C99.6288 1 99.7618 1.46667 99.7618 2V11.1C99.7618 12.3 99.283 12.9 98.3253 12.9H90.8232ZM89.5463 75V21.4H99.4426V75H89.5463Z" fill="black"/>
<path d="M14.0464 99.7C11.3329 99.7 8.912 99.2 6.78376 98.2C4.65552 97.2667 2.97953 95.8 1.7558 93.8C0.585266 91.8667 0 89.5 0 86.7V84.8C0 81.8667 0.665075 79.3667 1.99522 77.3C3.32537 75.3 5.02796 73.7667 7.103 72.7C9.17803 71.6333 11.3329 71.1 13.5675 71.1L16.4406 75.2C15.1105 75.2 13.9134 75.4667 12.8492 76C11.7851 76.5333 10.9338 77.3333 10.2954 78.4C9.65688 79.4667 9.33765 80.8 9.33765 82.4V84C9.33765 86.4 9.97612 88.1333 11.2531 89.2C12.53 90.3333 14.339 90.9 16.6801 90.9H25.3792C27.8267 90.9 29.7421 90.3 31.1255 89.1C32.5621 87.9667 33.2803 86.2 33.2803 83.8V82.1C33.2803 80.6333 33.0409 79.4 32.5621 78.4C32.0832 77.4 31.3117 76.6 30.2476 76C29.1835 75.4667 27.7469 75.2 25.9379 75.2H15.2435C10.987 75.2 7.76807 74.1667 5.58663 72.1C3.45839 70.0333 2.39427 67.4333 2.39427 64.3C2.39427 61.6333 3.00614 59.4333 4.22987 57.7C5.50682 55.9667 7.26261 54.8 9.49727 54.2C7.68826 53.1333 6.2517 51.7667 5.18758 50.1C4.17667 48.4333 3.45839 46.6333 3.03274 44.7C2.60709 42.7667 2.39427 40.8 2.39427 38.8C2.39427 34.7333 3.05934 31.4333 4.38949 28.9C5.71964 26.3 7.66166 24.4 10.2155 23.2C12.7694 21.9333 15.9352 21.3 19.7128 21.3H42.7776V28.2L35.1957 29.5C35.7278 30.1667 36.2865 30.9667 36.8717 31.9C37.5102 32.8333 38.0423 34.0667 38.4679 35.6C38.8936 37.1333 39.1064 39.1333 39.1064 41.6C39.1064 44.6 38.6009 47.3333 37.59 49.8C36.6323 52.2667 35.0361 54.2333 32.8015 55.7C30.5668 57.1667 27.5607 57.9 23.7831 57.9H16.5205C14.8179 57.9 13.4345 58.2333 12.3704 58.9C11.3063 59.5667 10.7742 60.7 10.7742 62.3C10.7742 63.6333 11.1999 64.5667 12.0512 65.1C12.9024 65.6333 13.8069 65.9 14.7647 65.9H27.4543C30.6998 65.9 33.44 66.4333 35.6746 67.5C37.9625 68.5667 39.6917 70.2333 40.8622 72.5C42.0327 74.7667 42.618 77.7667 42.618 81.5V83.2C42.618 88.3333 41.2878 92.3667 38.6275 95.3C36.0204 98.2333 32.0034 99.7 26.5764 99.7H14.0464ZM18.1166 48.6H22.7456C24.7142 48.6 26.2305 48.2333 27.2947 47.5C28.412 46.7 29.1569 45.6667 29.5293 44.4C29.955 43.0667 30.1678 41.6 30.1678 40C30.1678 37.7333 29.8752 35.9333 29.2899 34.6C28.7578 33.2 27.9597 32.2 26.8956 31.6C25.8847 31 24.6344 30.7 23.1446 30.7H18.6753C16.281 30.7 14.4454 31.3667 13.1685 32.7C11.9447 34.0333 11.3329 36.3 11.3329 39.5C11.3329 42.7 11.9181 45.0333 13.0887 46.5C14.2592 47.9 15.9352 48.6 18.1166 48.6Z" stroke="black"/>
<path d="M64.7313 75.6C63.5076 75.6 62.0976 75.5333 60.5014 75.4C58.9584 75.3333 57.3889 75.2 55.7927 75C54.2497 74.8667 52.8132 74.6667 51.483 74.4C50.1529 74.1333 49.0621 73.8333 48.2108 73.5V66.2H66.6467C67.9769 66.2 69.0942 66.0667 69.9987 65.8C70.9564 65.5333 71.6747 65 72.1535 64.2C72.6324 63.4 72.8718 62.2 72.8718 60.6V58.7C72.8718 57.0333 72.4196 55.7333 71.5151 54.8C70.6638 53.8 69.1474 53.3 66.9659 53.3H60.5014C58.0007 53.3 55.7661 52.8667 53.7975 52C51.8821 51.1333 50.3657 49.6667 49.2484 47.6C48.131 45.5333 47.5724 42.7333 47.5724 39.2V36.2C47.5724 32.8 48.0778 30 49.0887 27.8C50.1529 25.5333 51.8821 23.8333 54.2763 22.7C56.7238 21.5 59.9694 20.9 64.013 20.9C65.7156 20.9 67.5512 21 69.5198 21.2C71.4885 21.4 73.3773 21.6667 75.1863 22C76.9953 22.2667 78.4318 22.6 79.496 23V30.3H62.0976C60.129 30.3 58.6126 30.7333 57.5485 31.6C56.5376 32.4 56.0321 33.9333 56.0321 36.2V38.1C56.0321 39.5667 56.2715 40.6667 56.7504 41.4C57.2293 42.1333 57.9475 42.6333 58.9052 42.9C59.8629 43.1667 61.0069 43.3 62.337 43.3H68.9612C73.1644 43.3 76.277 44.5 78.2988 46.9C80.3206 49.3 81.3316 52.7 81.3316 57.1V61.5C81.3316 65.1 80.6665 67.9333 79.3363 70C78.0062 72.0667 76.0908 73.5333 73.5901 74.4C71.1426 75.2 68.1897 75.6 64.7313 75.6Z" stroke="black"/>
<path d="M90.8232 12.9C89.8123 12.9 89.3068 12.3 89.3068 11.1V2C89.3068 0.666668 89.8123 0 90.8232 0H98.3253C98.8041 0 99.1499 0.200001 99.3628 0.600004C99.6288 1 99.7618 1.46667 99.7618 2V11.1C99.7618 12.3 99.283 12.9 98.3253 12.9H90.8232ZM89.5463 75V21.4H99.4426V75H89.5463Z" stroke="black"/>
</svg>
